<svg width="28" height="28" viewBox="0 0 28 28" fill="none" xmlns="http://www.w3.org/2000/svg">
<path d="M24.1257 20.3096C22.9564 17.4524 20.7348 15.3096 18.0455 14.2381C19.5656 13.0477 20.501 11.1429 20.501 9.11909C20.501 5.30956 17.5778 2.33337 13.9531 2.33337C10.3285 2.33337 7.40531 5.30956 7.40531 9.00004C7.40531 11.0238 8.34072 12.9286 9.86075 14.1191C7.17146 15.1905 4.94988 17.3334 3.78062 20.1905C3.31292 21.381 3.42984 22.8096 4.1314 23.881C4.83295 25.0715 6.11913 25.6667 7.52224 25.6667H20.501C21.9041 25.6667 23.0733 24.9524 23.8918 23.881C24.5934 22.8096 24.7103 21.5 24.1257 20.3096ZM9.74383 9.00004C9.74383 6.61909 11.6146 4.71433 13.9531 4.71433C16.2917 4.71433 18.1625 6.61909 18.1625 9.00004C18.1625 11.381 16.2917 13.2858 13.9531 13.2858C11.6146 13.2858 9.74383 11.381 9.74383 9.00004ZM21.9041 22.6905C21.5533 23.1667 21.0856 23.5238 20.501 23.5238H7.40531C6.82069 23.5238 6.35298 23.2858 6.00221 22.6905C5.65143 22.2143 5.65143 21.7381 5.88528 21.2619C7.28839 17.8096 10.4454 15.6667 13.9531 15.6667C17.4609 15.6667 20.6179 17.8096 22.021 21.1429C22.2549 21.6191 22.1379 22.2143 21.9041 22.6905Z" fill="#3F72AF" fill-opacity="0.45"/>
</svg>
