<svg width="24" height="24" viewBox="0 0 24 24" fill="none" xmlns="http://www.w3.org/2000/svg">
<path d="M7.89996 20H5.49996C4.99996 20 4.49996 19.7 4.29996 19.3C3.99996 18.9 3.99996 18.5 4.19996 18C5.39996 15.2 8.09996 13.3 11.2 13.3C14.3 13.3 16.9 10.7 16.9 7.6C16.9 4.5 14.3 2 11.1 2C7.99996 2 5.39996 4.6 5.39996 7.7C5.39996 9.5 6.19996 11.1 7.49996 12.1C5.19996 13 3.19996 14.9 2.19996 17.3C1.79996 18.3 1.89996 19.5 2.49996 20.4C3.19996 21.4 4.19996 22 5.39996 22H7.79996C8.39996 22 8.79996 21.6 8.79996 21C8.79996 20.4 8.49996 20 7.89996 20ZM7.39996 7.7C7.39996 5.7 9.09996 4 11.1 4C13.1 4 14.8 5.7 14.8 7.7C14.8 9.7 13.1 11.4 11.1 11.4C9.09996 11.4 7.39996 9.7 7.39996 7.7Z" fill="#3F72AF" fill-opacity="0.45"/>
<path d="M21.2 11C20.2 10 18.5 10 17.5 11L12.2 16.3C11 17.5 10.3 19.2 10.3 21C10.3 21.6 10.7 22 11.3 22C13.1 22 14.7 21.3 16 20.1L21.3 14.8C21.8 14.3 22.1 13.6 22.1 12.9C22.1 12.2 21.7 11.5 21.2 11ZM19.8 13.4L14.5 18.7C13.9 19.3 13.2 19.7 12.4 19.9C12.6 19.1 13 18.4 13.6 17.8L18.9 12.5C19 12.4 19.2 12.3 19.4 12.3C19.6 12.3 19.7 12.4 19.8 12.5C19.9 12.6 20 12.8 20 12.9C20 13 19.9 13.2 19.8 13.4Z" fill="#3F72AF" fill-opacity="0.45"/>
</svg>
