<svg width="24" height="24" viewBox="0 0 24 24" fill="none" xmlns="http://www.w3.org/2000/svg">
<path fill-rule="evenodd" clip-rule="evenodd" d="M3 5.80005C3.55228 5.80005 4 6.24776 4 6.80005V18C4 19.6008 5.40416 21 7.2 21H15.9C16.4523 21 16.9 21.4478 16.9 22C16.9 22.5523 16.4523 23 15.9 23H7.2C4.39584 23 2 20.7993 2 18V6.80005C2 6.24776 2.44772 5.80005 3 5.80005Z" fill="#3F72AF"/>
<path fill-rule="evenodd" clip-rule="evenodd" d="M6 4.19048C6 2.33302 7.57934 1 9.31724 1H14.2414C15.3295 1 16.3598 1.36031 17.1486 2.12979L20.8035 5.45033C20.8136 5.45953 20.8235 5.46894 20.8333 5.47854C21.6141 6.24878 22 7.27213 22 8.28571V15.8095C22 17.667 20.4207 19 18.6828 19H9.31724C7.57934 19 6 17.667 6 15.8095V4.19048ZM9.31724 3C8.5448 3 8 3.57174 8 4.19048V15.8095C8 16.4283 8.5448 17 9.31724 17H18.6828C19.4552 17 20 16.4283 20 15.8095V8.28571C20 7.78138 19.811 7.2866 19.4418 6.91538L15.7896 3.59729C15.7795 3.58809 15.7696 3.57868 15.7598 3.56908C15.3921 3.20631 14.8839 3 14.2414 3H9.31724Z" fill="#3F72AF"/>
</svg>
