<svg width="28" height="28" viewBox="0 0 28 28" fill="none" xmlns="http://www.w3.org/2000/svg">
<path d="M20.3 9.91671H19.8333V8.28337C19.95 5.01671 17.2667 2.33337 14 2.33337C10.7333 2.33337 8.05 5.01671 8.05 8.28337V10.0334H7.7C5.36667 10.0334 3.5 11.9 3.5 14.2334V21.5834C3.5 23.9167 5.36667 25.7834 7.7 25.7834H20.4167C22.75 25.7834 24.6167 23.9167 24.6167 21.5834V14.2334C24.5 11.7834 22.6333 9.91671 20.3 9.91671ZM10.3833 8.28337C10.3833 6.30004 12.0167 4.66671 14 4.66671C15.9833 4.66671 17.6167 6.30004 17.6167 8.28337V10.0334H10.3833V8.28337ZM22.4 21.4667C22.4 22.5167 21.35 23.3334 20.3 23.3334H7.7C6.65 23.3334 5.83333 22.5167 5.83333 21.4667V14.1167C5.83333 13.0667 6.65 12.25 7.7 12.25H9.33333H18.9H20.5333C21.5833 12.25 22.4 13.0667 22.4 14.1167V21.4667Z" fill="#3F72AF" fill-opacity="0.45"/>
<path d="M13.9999 17.6167C13.2999 17.6167 12.8333 18.0834 12.8333 18.7834V20.65C12.8333 21.35 13.2999 21.8167 13.9999 21.8167C14.6999 21.8167 15.1666 21.35 15.1666 20.65V18.7834C15.1666 18.0834 14.6999 17.6167 13.9999 17.6167Z" fill="#3F72AF" fill-opacity="0.45"/>
</svg>
