<svg width="25" height="25" viewBox="0 0 25 25" fill="none" xmlns="http://www.w3.org/2000/svg">
<path fill-rule="evenodd" clip-rule="evenodd" d="M1.04175 6.02239C1.04175 3.79796 2.7352 2.08337 4.9617 2.08337H14.8301C17.0806 2.08337 18.7501 3.92591 18.7501 6.02239V12.231C18.7501 14.4796 16.9295 16.17 14.8301 16.17H8.35397C7.67889 16.17 7.06655 16.392 6.49905 16.799L2.70009 19.5896C2.38361 19.822 1.96329 19.8568 1.61294 19.6794C1.26258 19.502 1.04175 19.1427 1.04175 18.75V6.02239ZM3.12508 16.6924L5.27873 15.1104C6.14923 14.4845 7.18034 14.0867 8.35397 14.0867H14.8301C15.8146 14.0867 16.6667 13.2936 16.6667 12.231V6.02239C16.6667 5.01457 15.8691 4.16671 14.8301 4.16671H4.9617C3.89874 4.16671 3.12508 4.93557 3.12508 6.02239V16.6924Z" fill="#3F72AF" fill-opacity="0.45"/>
<path fill-rule="evenodd" clip-rule="evenodd" d="M20.3444 8.98005C20.5625 8.4477 21.1708 8.19294 21.7032 8.41104C23.0157 8.94877 23.9584 10.1918 23.9584 11.6484V22.9166C23.9584 23.2987 23.7492 23.6501 23.4134 23.8323C23.0775 24.0144 22.6689 23.9981 22.3486 23.7897L18.7028 21.4175C18.68 21.4027 18.6579 21.387 18.6364 21.3704C18.2364 21.0632 17.632 20.8941 16.9118 20.8941H10.7997C9.35525 20.8941 8.00949 20.0964 7.39511 18.8222C7.14526 18.304 7.3628 17.6813 7.88101 17.4315C8.39922 17.1816 9.02185 17.3992 9.27171 17.9174C9.51517 18.4223 10.0996 18.8108 10.7997 18.8108H16.9118C17.8943 18.8108 18.9895 19.0312 19.8704 19.6917L21.8751 20.9961V11.6484C21.8751 11.1281 21.531 10.5919 20.9134 10.3389C20.381 10.1208 20.1263 9.5124 20.3444 8.98005Z" fill="#3F72AF" fill-opacity="0.45"/>
</svg>
