<svg width="44" height="44" viewBox="0 0 44 44" fill="none" xmlns="http://www.w3.org/2000/svg">
<path d="M33.7662 8.43333H31.0299V7.33333C31.0299 6.23333 30.3002 5.5 29.2057 5.5C28.1112 5.5 27.3815 6.23333 27.3815 7.33333V8.43333H20.4495C19.355 8.43333 18.6253 9.16667 18.6253 10.2667C18.6253 11.3667 19.355 12.1 20.4495 12.1H27.5639V13.2C27.5639 14.3 28.2936 15.0333 29.3881 15.0333C30.4827 15.0333 31.2124 14.3 31.2124 13.2V12.1H33.9487C35.2256 12.1 36.5026 13.2 36.5026 14.6667V17.2333H7.31517V14.6667C7.31517 13.2 8.59212 12.1 10.0515 12.1H12.7878V13.2C12.7878 14.3 13.5175 15.0333 14.612 15.0333C15.7065 15.0333 16.4362 14.3 16.4362 13.2V10.2667V7.33333C16.4362 6.23333 15.7065 5.5 14.612 5.5C13.5175 5.5 12.7878 6.23333 12.7878 7.33333V8.43333H10.0515C6.40307 8.43333 3.66675 11.1833 3.66675 14.6667V32.2667C3.66675 35.75 6.40307 38.5 10.0515 38.5H33.9487C37.4147 38.5 40.3334 35.75 40.3334 32.2667V14.6667C40.151 11.1833 37.4147 8.43333 33.7662 8.43333ZM33.7662 34.8333H10.0515C8.59212 34.8333 7.31517 33.7333 7.31517 32.2667V20.9H36.5026V32.2667C36.5026 33.7333 35.2256 34.8333 33.7662 34.8333Z" fill="white"/>
</svg>
