<svg width="44" height="44" viewBox="0 0 44 44" fill="none" xmlns="http://www.w3.org/2000/svg">
<path d="M37.9118 31.9148C36.0744 27.425 32.5833 24.0577 28.3573 22.374C30.7459 20.5032 32.2158 17.51 32.2158 14.3298C32.2158 8.34337 27.6223 3.6665 21.9264 3.6665C16.2304 3.6665 11.6369 8.34337 11.6369 14.1427C11.6369 17.323 13.1068 20.3162 15.4955 22.1869C11.2694 23.8706 7.77838 27.2379 5.94098 31.7277C5.20602 33.5985 5.38976 35.8434 6.4922 37.527C7.59464 39.3978 9.61578 40.3332 11.8207 40.3332H32.2158C34.4207 40.3332 36.2581 39.2107 37.5443 37.527C38.6467 35.8434 38.8305 33.7856 37.9118 31.9148ZM15.3117 14.1427C15.3117 10.4012 18.2516 7.408 21.9264 7.408C25.6012 7.408 28.541 10.4012 28.541 14.1427C28.541 17.8842 25.6012 20.8774 21.9264 20.8774C18.2516 20.8774 15.3117 17.8842 15.3117 14.1427ZM34.4207 35.6563C33.8695 36.4046 33.1345 36.9658 32.2158 36.9658H11.6369C10.7182 36.9658 9.98326 36.5917 9.43204 35.6563C8.88082 34.908 8.88082 34.1597 9.2483 33.4114C11.4532 27.9862 16.4142 24.6189 21.9264 24.6189C27.4386 24.6189 32.3996 27.9862 34.6044 33.2243C34.9719 33.9726 34.7882 34.908 34.4207 35.6563Z" fill="white"/>
</svg>
